#!OML:ASF F:\VICON\USERDATA\INSTALL\rory3\rory3.ASF
:FULLY-SPECIFIED
:DEGREES
517
root -11.8165 17.7827 7.55497 -2.05333 45.8752 -0.216265
lowerback 18.278 2.31069 8.39314
upperback 1.30975 4.75896 -0.584155
thorax -8.08149 2.00399 -6.5636
lowerneck -22.5232 5.50171 -7.79187
upperneck 36.4183 12.1549 0.881949
head 16.355 4.25239 4.18784
rclavicle -1.04561e-013 -3.57812e-015
rhumerus -38.5334 36.1923 -97.5187
rradius 80.241
rwrist 13.9964
rhand -21.4105 14.7606
rfingers 7.12502
rthumb 4.97796 -15.1609
lclavicle -1.04561e-013 -3.57812e-015
lhumerus -36.8905 -34.3895 101.534
lradius 80.6158
lwrist 14.5638
lhand -18.0202 34.7489
lfingers 7.12502
lthumb 8.25084 64.5678
rfemur -6.00179 -14.9036 20.8941
rtibia 30.3155
rfoot -17.8327 -6.99118
rtoes 2.90329
lfemur -21.3665 -6.11645 -18.8969
ltibia 31.215
lfoot -14.6698 -5.68638
ltoes -14.4983
518
root -11.8169 17.7969 7.5252 -1.86828 46.5491 -0.166014
lowerback 18.0898 2.36811 8.37279
upperback 1.17845 4.81012 -0.673275
thorax -8.10731 2.0216 -6.6526
lowerneck -22.3491 5.52175 -7.63625
upperneck 36.439 12.1219 0.872701
head 16.3378 4.26701 4.14603
rclavicle -7.19104e-014 3.97569e-014
rhumerus -38.7099 36.0781 -97.8731
rradius 80.2849
rwrist 14.6376
rhand -21.4209 15.4194
rfingers 7.12502
rthumb 4.96794 -14.5024
lclavicle -7.19104e-014 3.97569e-014
lhumerus -37.314 -34.544 101.482
lradius 80.9252
lwrist 14.9047
lhand -17.5853 34.434
lfingers 7.12502
lthumb 8.67055 64.2359
rfemur -6.07315 -15.1004 20.8542
rtibia 30.0749
rfoot -17.6653 -7.4034
rtoes 2.91997
lfemur -21.3093 -6.06411 -18.5294
ltibia 31.9599
lfoot -14.6785 -5.61179
ltoes -14.3961
519
root -11.8207 17.7965 7.46758 -2.22098 47.4509 -0.353452
lowerback 18.5067 2.20779 8.74696
upperback 1.14583 4.71797 -0.678789
thorax -8.35963 1.94634 -6.8856
lowerneck -22.2428 5.52699 -7.6322
upperneck 36.3641 12.1354 0.824183
head 16.2798 4.27774 4.1174
rclavicle 9.487e-014 -4.09496e-014
rhumerus -38.7659 36.2824 -98.0332
rradius 80.3564
rwrist 15.0885
rhand -21.6056 15.7147
rfingers 7.12502
rthumb 4.78956 -14.2112
lclavicle 9.487e-014 -4.09496e-014
lhumerus -37.5046 -34.5289 101.485
lradius 81.1273
lwrist 14.9378
lhand -16.8997 34.2057
lfingers 7.12502
lthumb 9.33214 63.9791
rfemur -5.84652 -15.5548 20.8093
rtibia 29.8947
rfoot -17.468 -7.81822
rtoes 2.58863
lfemur -21.0093 -6.32696 -18.1069
ltibia 32.6408
lfoot -14.5301 -5.37854
ltoes -13.8592
520
root -11.8093 17.8122 7.44932 -1.90443 48.0715 -0.336281
lowerback 17.9042 2.32442 8.6472
upperback 1.09929 4.79278 -0.696572
thorax -8.07093 2.00283 -6.81867
lowerneck -22.1764 5.54042 -7.53928
upperneck 36.3113 12.1405 0.755578
head 16.2514 4.29048 4.06882
rclavicle 3.86636e-014 5.56597e-015
rhumerus -38.7722 36.6513 -98.2097
rradius 80.4441
rwrist 15.2954
rhand -22.0879 15.449
rfingers 7.12502
rthumb 4.32392 -14.4869
lclavicle 3.86636e-014 5.56597e-015
lhumerus -37.667 -34.5863 101.455
lradius 81.2526
lwrist 14.9711
lhand -16.3633 33.889
lfingers 7.12502
lthumb 9.84967 63.6387
rfemur -6.04698 -15.6863 20.8497
rtibia 29.7431
rfoot -17.3616 -8.33344
rtoes 2.0376
lfemur -21.0168 -5.96322 -17.7176
ltibia 33.1785
lfoot -14.4574 -5.29669
ltoes -13.2162
521
root -11.8022 17.8243 7.41276 -1.5033 48.8383 -0.0832601
lowerback 17.5867 2.42908 8.55938
upperback 1.0372 4.88102 -0.74635
thorax -7.95068 2.0533 -6.81954
lowerneck -22.116 5.44027 -7.56894
upperneck 36.3184 12.0413 0.68293
head 16.2545 4.23999 4.02418
rclavicle -2.9768e-014 -3.97569e-016
rhumerus -38.7832 36.7691 -98.2011
rradius 80.5605
rwrist 15.5047
rhand -22.2061 15.2859
rfingers 7.12502
rthumb 4.20973 -14.6523
lclavicle -2.9768e-014 -3.97569e-016
lhumerus -37.8925 -34.8102 101.599
lradius 81.4269
lwrist 15.0387
lhand -16.0667 33.4672
lfingers 7.12502
lthumb 10.1358 63.2031
rfemur -6.23595 -16.0855 20.6251
rtibia 29.622
rfoot -17.1643 -8.674
rtoes 1.59107
lfemur -20.9746 -5.83666 -17.5332
ltibia 33.6034
lfoot -14.2407 -5.04265
ltoes -12.6423
522
root -11.7957 17.8377 7.38524 -1.10925 49.4815 0.205478
lowerback 17.1571 2.64037 8.18541
upperback 1.05964 5.05374 -0.655638
thorax -7.69836 2.16833 -6.50813
lowerneck -22.0923 5.2928 -7.72921
upperneck 36.3048 11.9609 0.527392
head 16.2567 4.16735 3.97001
rclavicle 4.41302e-014 -2.46493e-014
rhumerus -38.6906 36.8083 -97.9253
rradius 80.6683
rwrist 15.8626
rhand -21.9479 15.5248
rfingers 7.12502
rthumb 4.45906 -14.4083
lclavicle 4.41302e-014 -2.46493e-014
lhumerus -38.0065 -34.9265 101.901
lradius 81.6209
lwrist 15.1102
lhand -15.9646 33.9842
lfingers 7.12502
lthumb 10.2343 63.7152
rfemur -6.32455 -16.3033 20.3968
rtibia 29.4398
rfoot -17.0112 -8.98556
rtoes 2.05816
lfemur -20.7859 -5.64365 -17.3202
ltibia 33.8736
lfoot -14.0516 -4.69191
ltoes -11.839
523
root -11.795 17.8492 7.34261 -1.03402 50.195 0.174583
lowerback 17.0561 2.65175 8.15793
upperback 1.03526 5.06023 -0.601786
thorax -7.67558 2.17405 -6.42817
lowerneck -22.0254 5.29838 -7.68904
upperneck 36.2276 12.002 0.386374
head 16.2189 4.17845 3.9048
rclavicle -2.27608e-014 3.22031e-014
rhumerus -38.596 37.1136 -97.9328
rradius 80.7323
rwrist 16.0399
rhand -21.8874 15.6679
rfingers 7.12502
rthumb 4.51749 -14.2639
lclavicle -2.27608e-014 3.22031e-014
lhumerus -38.1075 -34.7847 101.931
lradius 81.7976
lwrist 15.1417
lhand -15.9507 34.9678
lfingers 7.12502
lthumb 10.2477 64.6982
rfemur -6.41282 -16.3229 20.3935
rtibia 29.2801
rfoot -16.8382 -9.52705
rtoes 2.54213
lfemur -20.6115 -5.74769 -16.9034
ltibia 34.0362
lfoot -13.7039 -4.12487
ltoes -10.798
524
root -11.7897 17.86 7.30239 -1.05923 50.9724 -0.0324164
lowerback 16.9585 2.56764 8.31544
upperback 0.942018 4.97411 -0.60511
thorax -7.72448 2.12072 -6.49981
lowerneck -21.9261 5.3667 -7.51607
upperneck 36.1393 12.0555 0.292256
head 16.1696 4.22071 3.83759
rclavicle 5.94366e-014 1.82882e-014
rhumerus -38.6849 37.5574 -98.2638
rradius 80.795
rwrist 16.1195
rhand -22.4825 15.0198
rfingers 7.12502
rthumb 3.94286 -14.9234
lclavicle 5.94366e-014 1.82882e-014
lhumerus -38.297 -34.5855 101.828
lradius 81.9246
lwrist 15.4053
lhand -16.5448 35.508
lfingers 7.12502
lthumb 9.67452 65.2658
rfemur -6.48395 -16.3523 20.5206
rtibia 29.0811
rfoot -16.6881 -10.1599
rtoes 2.73217
lfemur -20.4531 -5.80874 -16.3641
ltibia 34.0784
lfoot -13.4158 -3.61534
ltoes -10.0106
525
root -11.7745 17.8688 7.26681 -0.902155 51.9477 -0.0425248
lowerback 16.7069 2.45394 8.42303
upperback 0.850249 4.82064 -0.653571
thorax -7.69782 2.04047 -6.56635
lowerneck -21.9397 5.35831 -7.43089
upperneck 36.1596 12.0367 0.256014
head 16.1942 4.21933 3.80867
rclavicle 5.27276e-014 2.14687e-014
rhumerus -38.7628 37.8713 -98.5524
rradius 80.8918
rwrist 16.0371
rhand -22.9166 14.3074
rfingers 7.12502
rthumb 3.52365 -15.6432
lclavicle 5.27276e-014 2.14687e-014
lhumerus -38.5499 -34.5049 101.877
lradius 81.982
lwrist 16.0386
lhand -18.2607 35.7684
lfingers 7.12502
lthumb 8.01871 65.5962
rfemur -6.51365 -16.7255 20.4631
rtibia 28.8795
rfoot -16.5576 -10.6614
rtoes 2.85046
lfemur -20.3236 -5.7193 -16.0198
ltibia 34.0417
lfoot -13.3311 -3.2085
ltoes -9.89845
526
root -11.7578 17.8802 7.23733 -0.620609 52.8498 0.111426
lowerback 16.392 2.39866 8.35232
upperback 0.791821 4.70381 -0.694079
thorax -7.60819 1.98934 -6.52489
lowerneck -21.9708 5.32155 -7.43962
upperneck 36.1869 12.0035 0.252215
head 16.2176 4.2036 3.80687
rclavicle -9.04967e-014 -1.70955e-014
rhumerus -38.7015 38.0166 -98.7159
rradius 80.9847
rwrist 15.5948
rhand -22.6482 14.5982
rfingers 7.12502
rthumb 3.78285 -15.3479
lclavicle -9.04967e-014 -1.70955e-014
lhumerus -38.8258 -34.366 101.926
lradius 82.166
lwrist 16.4394
lhand -19.5498 36.1065
lfingers 7.12502
lthumb 6.77445 65.9782
rfemur -6.52709 -17.1049 20.3009
rtibia 28.6812
rfoot -16.3708 -11.0928
rtoes 2.67583
lfemur -20.1394 -5.52048 -15.7714
ltibia 33.9241
lfoot -13.2916 -2.77276
ltoes -9.34607
